<?xml version="1.0" encoding="UTF-8"?>
<svg width="20px" height="18px" viewBox="0 0 20 18" version="1.1" xmlns="http://www.w3.org/2000/svg" xmlns:xlink="http://www.w3.org/1999/xlink">
    <!-- Generator: Sketch 59.1 (86144) - https://sketch.com -->
    <title>Shape</title>
    <desc>Created with Sketch.</desc>
    <g id="Welcome" stroke="none" stroke-width="1" fill="none" fill-rule="evenodd">
        <g id="Desktop-HD-Copy" transform="translate(-949.000000, -346.000000)" fill="#000000" fill-rule="nonzero">
            <g id="Group-6" transform="translate(455.000000, 140.000000)">
                <g id="color-input" transform="translate(0.000000, 191.000000)">
                    <path d="M512.329298,15 L504.31477,15 C503.394673,15 502.644068,15.6838235 502.644068,16.5220588 L502.644068,21.6838235 C502.644068,22.4779412 501.941889,23.1176471 501.070218,23.1176471 L495.57385,23.1176471 C494.702179,23.1176471 494,23.7573529 494,24.5735294 L494,31.4779412 C494,32.3161765 494.750605,33 495.670702,33 L512.329298,33 C513.249395,33 514,32.3161765 514,31.4779412 L514,16.5220588 C514,15.6838235 513.249395,15 512.329298,15 Z M507.46247,27.9485294 C507.46247,28.3235294 507.123487,28.6102941 506.711864,28.6102941 L499.811138,28.6102941 C499.762712,28.6102941 499.738499,28.6544118 499.786925,28.6764706 L500.803874,29.6029412 C500.8523,29.6470588 500.8523,29.7132353 500.803874,29.7573529 L500.101695,30.3970588 C500.053269,30.4411765 499.98063,30.4411765 499.932203,30.3970588 L497.849879,28.5 C497.559322,28.2352941 497.559322,27.8161765 497.849879,27.5514706 L499.883777,25.6985294 C499.932203,25.6544118 500.004843,25.6544118 500.053269,25.6985294 L500.755448,26.3382353 C500.803874,26.3823529 500.803874,26.4485294 500.755448,26.4926471 L499.738499,27.4191176 C499.714286,27.4411765 499.738499,27.4852941 499.762712,27.4852941 L506.106538,27.4852941 C506.179177,27.4852941 506.227603,27.4411765 506.227603,27.375 L506.227603,25.2352941 C506.227603,25.1691176 506.276029,25.125 506.348668,25.125 L507.341404,25.125 C507.414044,25.125 507.46247,25.1691176 507.46247,25.2352941 L507.46247,27.9485294 L507.46247,27.9485294 Z M511.941889,20.7352941 C511.941889,20.7794118 511.917676,20.8014706 511.869249,20.8014706 L511.239709,20.8014706 C511.191283,20.8014706 511.16707,20.7794118 511.16707,20.7352941 L511.16707,18.1102941 C511.16707,17.8235294 510.924939,17.6029412 510.610169,17.6029412 L507.874092,17.6029412 C507.825666,17.6029412 507.801453,17.5808824 507.801453,17.5367647 L507.801453,16.9632353 C507.801453,16.9191176 507.825666,16.8970588 507.874092,16.8970588 L510.610169,16.8970588 C511.336562,16.8970588 511.941889,17.4264706 511.941889,18.1102941 L511.941889,20.7352941 Z" id="Shape"></path>
                </g>
            </g>
        </g>
    </g>
</svg>