<?xml version="1.0" encoding="UTF-8"?>
<svg width="16px" height="16px" viewBox="0 0 16 16" version="1.1" xmlns="http://www.w3.org/2000/svg" xmlns:xlink="http://www.w3.org/1999/xlink">
    <!-- Generator: Sketch 59.1 (86144) - https://sketch.com -->
    <title>noun_hint_2571889</title>
    <desc>Created with Sketch.</desc>
    <g id="Welcome" stroke="none" stroke-width="1" fill="none" fill-rule="evenodd">
        <g id="Desktop-HD-Copy" transform="translate(-455.000000, -396.000000)" fill="#000000" fill-rule="nonzero">
            <g id="Group-6" transform="translate(455.000000, 140.000000)">
                <g id="input-with-helper" transform="translate(0.000000, 255.000000)">
                    <g id="helper">
                        <g id="Group">
                            <g id="noun_hint_2571889" transform="translate(0.000000, 1.000000)">
                                <path d="M13.16,0.14 L2.82,0.14 C1.28,0.14 0.02,1.4 0.02,2.94 L0.02,9.32 C0.02,10.86 1.28,12.12 2.82,12.12 L9.4,12.12 L12.56,15.28 C12.66,15.38 12.8,15.44 12.96,15.44 C13.04,15.44 13.1,15.42 13.18,15.4 C13.38,15.32 13.52,15.1 13.52,14.88 L13.52,12.08 C14.9,11.9 15.96,10.72 15.96,9.32 L15.96,2.94 C15.94,1.4 14.7,0.14 13.16,0.14 Z M8.44,8.74 C8.34,8.86 8.2,8.9 8.06,8.9 C7.9,8.9 7.76,8.84 7.66,8.74 C7.58,8.64 7.52,8.52 7.52,8.36 C7.52,8.22 7.58,8.08 7.68,7.98 C7.88,7.78 8.24,7.78 8.44,7.98 C8.54,8.08 8.6,8.22 8.6,8.36 C8.6,8.52 8.54,8.64 8.44,8.74 Z M8.6,6.16 C8.6,6.46 8.36,6.7 8.06,6.7 C7.76,6.7 7.52,6.46 7.52,6.16 L7.52,3.32 C7.52,3.02 7.76,2.78 8.06,2.78 C8.36,2.78 8.6,3.02 8.6,3.32 L8.6,6.16 Z" id="Shape"></path>
                            </g>
                        </g>
                    </g>
                </g>
            </g>
        </g>
    </g>
</svg>