<?xml version="1.0" encoding="UTF-8"?>
<svg width="32px" height="32px" viewBox="0 0 32 32" version="1.1" xmlns="http://www.w3.org/2000/svg" xmlns:xlink="http://www.w3.org/1999/xlink">
    <!-- Generator: Sketch 59.1 (86144) - https://sketch.com -->
    <title>Pick a color</title>
    <g id="Page-1" stroke="none" stroke-width="1" fill="none" fill-rule="evenodd">
        <g id="noun_Color-Picker_629280" fill="#000000" fill-rule="nonzero">
            <g id="Group">
                <path d="M23.1,14.6 L23.1,14.6 L17.3,8.8 L17.3,8.8 L17,8.4 C16.6,8 16,7.8 15.5,7.8 C14.9,7.8 14.4,8 14,8.4 C13.6,8.8 13.4,9.4 13.4,9.9 C13.4,10.5 13.6,11 14,11.4 L20.6,18 C21.4,18.8 22.9,18.8 23.7,18 C24.5,17.2 24.5,15.8 23.7,14.9 L23.1,14.6 Z" id="Path"></path>
                <path d="M3.4,22.8 C2.3,23.9 1.9,25.4 2.4,26.9 C2.7,27.8 2.4,28.7 1.8,29.3 L0.7,30.4 C0.6,30.5 0.5,30.7 0.5,30.9 C0.5,31.1 0.6,31.2 0.7,31.4 C0.9,31.6 1.4,31.6 1.6,31.4 L2.7,30.3 C3.3,29.7 4.2,29.5 5.1,29.7 C6.5,30.1 8.1,29.7 9.2,28.7 L18.9,19 L13.1,13.2 L3.4,22.8 Z" id="Path"></path>
                <path d="M31.5,5.8 C31.5,4.6 30.9,3.4 29.8,2.3 C29,1.5 27.7,0.6 26.1,0.6 C24.8,0.6 23.4,1.3 22.1,2.6 C20.7,3.9 19.5,6 18.9,8 L21.5,10.6 L24.1,13.2 C26.1,12.6 28.2,11.4 29.6,10 C30.9,8.5 31.5,7.2 31.5,5.8 Z" id="Path"></path>
            </g>
        </g>
    </g>
</svg>