<?xml version="1.0" standalone="no"?>
<!DOCTYPE svg PUBLIC "-//W3C//DTD SVG 20010904//EN"
 "http://www.w3.org/TR/2001/REC-SVG-20010904/DTD/svg10.dtd">
<svg version="1.0" xmlns="http://www.w3.org/2000/svg"
 width="700.000000pt" height="700.000000pt" viewBox="0 0 700.000000 700.000000"
 preserveAspectRatio="xMidYMid meet">
<metadata>
Created by potrace 1.11, written by Peter Selinger 2001-2013
</metadata>
<g transform="translate(0.000000,700.000000) scale(0.100000,-0.100000)"
fill="#000000" stroke="none">
<path d="M3215 6989 c-1004 -86 -1899 -579 -2513 -1387 -373 -489 -613 -1100
-684 -1737 -17 -154 -17 -585 0 -730 44 -370 129 -694 269 -1020 276 -645 764
-1212 1365 -1586 447 -278 924 -443 1483 -511 130 -16 600 -16 730 0 451 55
818 163 1195 351 729 364 1312 973 1639 1714 144 325 238 675 283 1052 16 139
16 595 0 730 -108 889 -477 1619 -1122 2217 -507 471 -1171 785 -1865 882
-249 35 -546 45 -780 25z m124 -1828 c215 -27 226 -29 248 -55 13 -15 23 -36
23 -46 0 -10 -40 -157 -90 -326 -49 -169 -90 -312 -90 -318 0 -8 118 -26 333
-53 182 -22 333 -39 335 -38 2 2 46 151 99 331 62 215 103 337 116 352 26 28
46 28 324 -6 200 -25 225 -30 248 -52 14 -14 25 -35 25 -50 0 -15 -41 -165
-90 -334 -49 -169 -90 -310 -90 -314 0 -4 127 -23 283 -41 155 -19 285 -37
289 -40 9 -8 -99 -336 -131 -399 -48 -93 -155 -166 -261 -177 -31 -3 -120 3
-205 13 -82 11 -153 17 -157 13 -11 -11 -141 -462 -134 -469 4 -3 124 -20 267
-38 143 -17 262 -33 264 -36 3 -2 -25 -93 -61 -202 -77 -229 -106 -275 -209
-332 -81 -45 -139 -51 -308 -30 -76 10 -140 16 -142 14 -2 -2 -46 -151 -99
-333 -101 -348 -113 -375 -169 -375 -51 0 -488 60 -505 69 -11 6 -25 24 -32
40 -11 28 -4 59 82 353 52 178 94 324 94 325 -4 5 -668 84 -672 80 -2 -2 -49
-156 -104 -343 -65 -221 -105 -343 -117 -351 -9 -7 -27 -13 -40 -13 -24 0
-413 46 -472 56 -40 7 -81 45 -81 76 0 13 41 164 92 336 50 172 89 314 87 317
-3 2 -138 21 -299 41 -162 20 -296 38 -298 39 -8 7 133 394 158 430 64 93 161
145 273 145 34 0 126 -8 204 -17 78 -9 145 -15 147 -12 6 6 136 449 136 464 0
8 -92 23 -277 45 -153 19 -279 34 -280 35 -7 4 128 390 146 418 28 45 89 102
137 126 74 38 134 43 304 22 85 -10 156 -18 156 -17 1 0 45 149 99 331 65 225
103 337 117 352 28 30 47 29 327 -6z"/>
<path d="M3174 3551 c-68 -231 -70 -240 -50 -244 51 -12 646 -80 652 -75 6 6
144 471 141 474 -1 1 -141 18 -312 39 -170 20 -321 39 -336 42 -25 5 -26 3
-95 -236z"/>
</g>
</svg>
