<?xml version="1.0" encoding="UTF-8"?>
<svg width="72px" height="72px" viewBox="0 0 72 72" version="1.1" xmlns="http://www.w3.org/2000/svg" xmlns:xlink="http://www.w3.org/1999/xlink">
    <!-- Generator: Sketch 59.1 (86144) - https://sketch.com -->
    <title>WhatTheHex?!</title>
    <desc>Created with Sketch.</desc>
    <g id="Welcome" stroke="none" stroke-width="1" fill="none" fill-rule="evenodd">
        <g id="Desktop-HD-Copy-7" transform="translate(-683.000000, -130.000000)">
            <g id="Group-6" transform="translate(455.000000, 130.000000)">
                <g id="Group-7" transform="translate(117.000000, 0.000000)">
                    <g id="logo-3" transform="translate(111.000000, 0.000000)">
                        <g id="Group-2-Copy-4">
                            <circle id="Oval" fill="#0D51FF" cx="36" cy="36" r="36"></circle>
                            <g id="Group" transform="translate(36.321635, 36.276553) rotate(7.000000) translate(-36.321635, -36.276553) translate(18.321635, 19.276553)" fill="#FFFFFF" fill-rule="nonzero">
                                <path d="M18.6685318,32.3437797 L23.8536087,0.739501674 C23.9235769,0.313028528 24.2921465,-5.6875052e-14 24.7243211,-5.68434189e-14 L29.4534028,-5.68434189e-14 C29.9407129,-5.69329363e-14 30.3357557,0.395042868 30.3357557,0.882352941 C30.3357557,0.930206904 30.3318627,0.97798156 30.3241153,1.02520421 L25.1390384,32.6294823 C25.0690701,33.0559554 24.7005005,33.368984 24.2683259,33.368984 L19.5392443,33.368984 C19.0519342,33.368984 18.6568913,32.9739411 18.6568913,32.486631 C18.6568913,32.4387771 18.6607843,32.3910024 18.6685318,32.3437797 Z" id="Path" fill-opacity="0.8"></path>
                                <path d="M5.17254249,32.3437797 L10.3576194,0.739501674 C10.4275876,0.313028528 10.7961572,-5.78742527e-14 11.2283318,-5.68434189e-14 L15.9574135,-5.68434189e-14 C16.4447236,-5.6821914e-14 16.8397664,0.395042868 16.8397664,0.882352941 C16.8397664,0.930206904 16.8358734,0.97798156 16.828126,1.02520421 L11.6187842,32.7773826 C11.5628096,33.1185611 11.2679539,33.368984 10.9222142,33.368984 L6.04325497,33.368984 C5.55594489,33.368984 5.16090203,32.9739411 5.16090203,32.486631 C5.16090203,32.4387771 5.16479502,32.3910024 5.17254249,32.3437797 Z" id="Path" fill-opacity="0.8"></path>
                                <path d="M0,25.7436497 L0.73884123,22.0613548 C1.06965142,20.4126369 2.51770464,19.2262701 4.19928301,19.2262701 L33,19.2262701 L33,19.2262701 L32.2611588,22.908565 C31.9303486,24.5572829 30.4822954,25.7436497 28.800717,25.7436497" id="Path"></path>
                                <path d="M2.29411765,14.1427139 L3.03295888,10.4604189 C3.36376907,8.81170111 4.81182229,7.62533422 6.49340066,7.62533422 L35.2941176,7.62533422 L35.2941176,7.62533422 L34.5552764,11.3076292 C34.2244662,12.956347 32.776413,14.1427139 31.0948346,14.1427139" id="Path"></path>
                            </g>
                        </g>
                    </g>
                </g>
            </g>
        </g>
    </g>
</svg>