<?xml version="1.0" encoding="UTF-8"?>
<svg width="354px" height="39px" viewBox="0 0 354 39" version="1.1" xmlns="http://www.w3.org/2000/svg" xmlns:xlink="http://www.w3.org/1999/xlink">
    <!-- Generator: Sketch 59.1 (86144) - https://sketch.com -->
    <title>logo</title>
    <desc>Created with Sketch.</desc>
    <g id="Welcome" stroke="none" stroke-width="1" fill="none" fill-rule="evenodd">
        <g id="Desktop-HD-Copy" transform="translate(-544.000000, -242.000000)" fill-rule="nonzero">
            <g id="Group-6" transform="translate(455.000000, 140.000000)">
                <g id="Group-4" transform="translate(89.000000, 102.000000)">
                    <g id="logo" transform="translate(0.000000, -0.000000)">
                        <path d="M10.1590909,36.9090909 L1.42108547e-13,2 L9.32386364,2 L14.5909091,24.875 L14.8806818,24.875 L20.8977273,2 L28.5,2 L34.5170455,24.9261364 L34.8068182,24.9261364 L40.0909091,2 L49.3977273,2 L39.2556818,36.9090909 L31.125,36.9090909 L24.8352273,15.7386364 L24.5625,15.7386364 L18.2727273,36.9090909 L10.1590909,36.9090909 Z M61.234006,21.9772727 L61.234006,36.9090909 L52.8987787,36.9090909 L52.8987787,2 L60.9612787,2 L60.9612787,15.5340909 L61.2510515,15.5340909 C61.8419635,13.9204465 62.8107038,12.6590955 64.1573015,11.75 C65.5038991,10.8409045 67.1544508,10.3863636 69.109006,10.3863636 C70.9499243,10.3863636 72.552181,10.7926096 73.9158242,11.6051136 C75.2794674,12.4176177 76.3391159,13.5624926 77.0948015,15.0397727 C77.8504871,16.5170528 78.2226424,18.2443083 78.2117729,20.2215909 L78.2117729,36.9090909 L69.8760515,36.9090909 L69.8760515,21.8579545 C69.8874152,20.4034018 69.5237824,19.2670495 68.7851424,18.4488636 C68.0465023,17.6306777 67.00674,17.2215909 65.6658242,17.2215909 C64.7908198,17.2215909 64.0209412,17.4119299 63.3561651,17.7926136 C62.6913891,18.1732974 62.1743488,18.7159056 61.8050287,19.4204545 C61.4357087,20.1250035 61.2453697,20.9772677 61.234006,21.9772727 Z M90.7703372,37.3522727 C89.0998743,37.3522727 87.6197755,37.0710255 86.3299963,36.5085227 C85.0402171,35.9460199 84.0231818,35.0937557 83.2788599,33.9517045 C82.534538,32.8096534 82.1623826,31.3750086 82.1623826,29.6477273 C82.1623826,28.1931745 82.4180619,26.9659141 82.9294281,25.9659091 C83.4407943,24.9659041 84.1453327,24.1534122 85.0430645,23.5284091 C85.9407962,22.903406 86.9748768,22.4289789 88.1453372,22.1051136 C89.148589,21.8275148 90.2102688,21.6271452 91.3304003,21.5040006 L92.6785852,21.3736381 C93.8103483,21.2595321 94.7481227,21.1397217 95.4919281,21.0142045 C96.4010236,20.8607947 97.0629488,20.639206 97.4777236,20.3494318 C97.8924984,20.0596576 98.0998826,19.6477299 98.0998826,19.1136364 L98.0998826,19.0284091 C98.0998826,18.1534047 97.7987493,17.4772751 97.1964736,17 C96.5941978,16.5227249 95.7817059,16.2840909 94.7589736,16.2840909 C93.6566953,16.2840909 92.7703405,16.5227249 92.0998826,17 C91.4294247,17.4772751 91.0032926,18.1363594 90.8214736,18.9772727 L83.1339736,18.7045455 C83.3612474,17.1136284 83.9493097,15.6903472 84.8981781,14.4346591 C85.8470465,13.178971 87.1538516,12.1903445 88.8186326,11.46875 C90.4834137,10.7471555 92.4862346,10.3863636 94.8271554,10.3863636 C96.4976183,10.3863636 98.0373756,10.5823844 99.4464736,10.9744318 C100.855572,11.3664792 102.082832,11.9346554 103.128292,12.6789773 C104.173752,13.4232992 104.983403,14.3352219 105.557269,15.4147727 C106.131136,16.4943236 106.418064,17.7272658 106.418064,19.1136364 L106.418064,36.9090909 L98.5771554,36.9090909 L98.5771554,33.2613636 L98.3726099,33.2613636 C97.9066985,34.1477317 97.3129544,34.8977242 96.5913599,35.5113636 C95.8697654,36.1250031 95.023183,36.5852257 94.0515872,36.8920455 C93.0799914,37.1988652 91.9862524,37.3522727 90.7703372,37.3522727 Z M93.3442008,31.8977273 C94.2419326,31.8977273 95.0515836,31.7159109 95.7731781,31.3522727 C96.4947726,30.9886345 97.0714714,30.4857987 97.5032917,29.84375 C97.9351121,29.2017013 98.151019,28.4545497 98.151019,27.6022727 L98.151019,25.1136364 C97.9123815,25.238637 97.6254525,25.3522722 97.2902236,25.4545455 C96.9549946,25.5568187 96.588521,25.6534086 96.1907917,25.7443182 C95.7930625,25.8352277 95.3839757,25.9147724 94.963519,25.9829545 C94.5430624,26.0511367 94.1396573,26.1136364 93.7532917,26.1704545 C92.9691969,26.2954552 92.3015899,26.4886351 91.7504508,26.75 C91.1993117,27.0113649 90.7788614,27.3494297 90.4890872,27.7642045 C90.199313,28.1789793 90.0544281,28.6704517 90.0544281,29.2386364 C90.0544281,30.102277 90.3640841,30.7613614 90.9834054,31.2159091 C91.6027267,31.6704568 92.3896506,31.8977273 93.3442008,31.8977273 Z M126.272594,10.7272727 L126.272594,16.8636364 L109.755549,16.8636364 L109.755549,10.7272727 L126.272594,10.7272727 Z M113.215776,4.45454545 L121.551003,4.45454545 L121.551003,28.6761364 C121.551003,29.1875026 121.633389,29.5994303 121.798162,29.9119318 C121.962936,30.2244334 122.204411,30.4460221 122.522594,30.5767045 C122.840778,30.707387 123.221456,30.7727273 123.66464,30.7727273 C123.982823,30.7727273 124.320888,30.7414776 124.678844,30.6789773 L125.066117,30.6080681 C125.238617,30.5746591 125.379412,30.5443183 125.488503,30.5170455 L126.749867,36.5340909 L126.421209,36.624645 C126.06219,36.7205256 125.612085,36.8323857 125.07089,36.9602273 C124.349295,37.1306827 123.488508,37.2386361 122.488503,37.2840909 C120.533948,37.3750005 118.860669,37.1448891 117.468617,36.59375 C116.076564,36.0426109 115.014075,35.181824 114.281117,34.0113636 C113.597023,32.9189339 113.242076,31.5641989 113.216268,29.9471227 L113.215776,4.45454545 Z M129.388479,8.85227273 L129.388479,2 L158.894161,2 L158.894161,8.85227273 L148.308934,8.85227273 L148.308934,36.9090909 L139.990752,36.9090909 L139.990752,8.85227273 L129.388479,8.85227273 Z M171.374817,21.9772727 L171.374817,36.9090909 L163.03959,36.9090909 L163.03959,2 L171.10209,2 L171.10209,15.5340909 L171.391862,15.5340909 C171.982774,13.9204465 172.951515,12.6590955 174.298112,11.75 C175.64471,10.8409045 177.295262,10.3863636 179.249817,10.3863636 C181.090735,10.3863636 182.692992,10.7926096 184.056635,11.6051136 C185.420278,12.4176177 186.479927,13.5624926 187.235612,15.0397727 C187.991298,16.5170528 188.363453,18.2443083 188.352584,20.2215909 L188.352584,36.9090909 L180.016862,36.9090909 L180.016862,21.8579545 C180.028226,20.4034018 179.664593,19.2670495 178.925953,18.4488636 C178.187313,17.6306777 177.147551,17.2215909 175.806635,17.2215909 C174.931631,17.2215909 174.161752,17.4119299 173.496976,17.7926136 C172.8322,18.1732974 172.31516,18.7159056 171.94584,19.4204545 C171.57652,20.1250035 171.386181,20.9772677 171.374817,21.9772727 Z M200.745752,20.9886364 L210.439557,20.9886364 C210.428193,20.1022683 210.217968,19.3125035 209.808875,18.6193182 C209.399782,17.9261329 208.840129,17.3835247 208.129898,16.9914773 C207.419667,16.5994299 206.604334,16.4034091 205.683875,16.4034091 C204.752053,16.4034091 203.916834,16.6107934 203.178194,17.0255682 C202.439553,17.440343 201.854332,18.0028374 201.422512,18.7130682 C201.05821,19.3122483 200.839493,19.978145 200.766356,20.7107727 L200.745752,20.9886364 L200.745752,20.9886364 Z M200.740694,25.8295455 L200.740694,26.0511364 C200.740694,27.1193235 200.950919,28.0539733 201.371375,28.8551136 C201.791832,29.656254 202.388417,30.2784069 203.161148,30.7215909 C203.933879,31.1647749 204.854325,31.3863636 205.922512,31.3863636 C206.661152,31.3863636 207.3316,31.2840919 207.933875,31.0795455 C208.536151,30.874999 209.053191,30.5738656 209.485012,30.1761364 C209.916832,29.7784071 210.240692,29.2897756 210.456603,28.7102273 L218.110012,28.9318182 C217.791828,30.6477359 217.095813,32.1391982 216.021944,33.40625 C214.948075,34.6733018 213.541839,35.6562465 211.803194,36.3551136 C210.064548,37.0539808 208.053205,37.4034091 205.769103,37.4034091 C203.030453,37.4034091 200.669681,36.8608009 198.686716,35.7755682 C196.703752,34.6903355 195.18104,33.1392146 194.118534,31.1221591 C193.056029,29.1051036 192.524784,26.7045594 192.524784,23.9204545 C192.524784,21.2158956 193.05887,18.849442 194.127057,16.8210227 C195.195244,14.7926035 196.700911,13.2130738 198.644103,12.0823864 C200.587294,10.9516989 202.877044,10.3863636 205.513421,10.3863636 C207.377066,10.3863636 209.081595,10.6761335 210.627057,11.2556818 C212.172519,11.8352302 213.507733,12.6931761 214.632739,13.8295455 C215.757745,14.9659148 216.632736,16.3664689 217.257739,18.03125 C217.882742,19.6960311 218.195239,21.602262 218.195239,23.75 L218.195239,25.8295455 L200.740694,25.8295455 L200.740694,25.8295455 Z M222.466815,36.9090909 L222.466815,2 L230.904315,2 L230.904315,16.0113636 L244.659997,16.0113636 L244.659997,2 L253.080451,2 L253.080451,36.9090909 L244.659997,36.9090909 L244.659997,22.8806818 L230.904315,22.8806818 L230.904315,36.9090909 L222.466815,36.9090909 Z M265.58664,20.9886364 L275.280445,20.9886364 C275.269082,20.1022683 275.058857,19.3125035 274.649764,18.6193182 C274.240671,17.9261329 273.681017,17.3835247 272.970786,16.9914773 C272.260556,16.5994299 271.445223,16.4034091 270.524764,16.4034091 C269.592941,16.4034091 268.757722,16.6107934 268.019082,17.0255682 C267.280442,17.440343 266.69522,18.0028374 266.2634,18.7130682 C265.899098,19.3122483 265.680381,19.978145 265.607245,20.7107727 L265.58664,20.9886364 L265.58664,20.9886364 Z M265.581582,25.8295455 L265.581582,26.0511364 C265.581582,27.1193235 265.791807,28.0539733 266.212264,28.8551136 C266.63272,29.656254 267.229305,30.2784069 268.002036,30.7215909 C268.774767,31.1647749 269.695213,31.3863636 270.7634,31.3863636 C271.50204,31.3863636 272.172488,31.2840919 272.774764,31.0795455 C273.377039,30.874999 273.89408,30.5738656 274.3259,30.1761364 C274.75772,29.7784071 275.081581,29.2897756 275.297491,28.7102273 L282.9509,28.9318182 C282.632717,30.6477359 281.936701,32.1391982 280.862832,33.40625 C279.788963,34.6733018 278.382727,35.6562465 276.644082,36.3551136 C274.905437,37.0539808 272.894093,37.4034091 270.609991,37.4034091 C267.871341,37.4034091 265.510569,36.8608009 263.527605,35.7755682 C261.54464,34.6903355 260.021928,33.1392146 258.959423,31.1221591 C257.896917,29.1051036 257.365673,26.7045594 257.365673,23.9204545 C257.365673,21.2158956 257.899758,18.849442 258.967945,16.8210227 C260.036133,14.7926035 261.541799,13.2130738 263.484991,12.0823864 C265.428182,10.9516989 267.717932,10.3863636 270.354309,10.3863636 C272.217955,10.3863636 273.922483,10.6761335 275.467945,11.2556818 C277.013408,11.8352302 278.348622,12.6931761 279.473627,13.8295455 C280.598633,14.9659148 281.473624,16.3664689 282.098627,18.03125 C282.72363,19.6960311 283.036127,21.602262 283.036127,23.75 L283.036127,25.8295455 L265.581582,25.8295455 L265.581582,25.8295455 Z M294.398612,10.7272727 L298.711112,19.3522727 L303.177021,10.7272727 L311.58043,10.7272727 L304.26793,23.8181818 L311.853158,36.9090909 L303.51793,36.9090909 L298.711112,28.2159091 L294.023612,36.9090909 L285.569067,36.9090909 L293.17134,23.8181818 L285.944067,10.7272727 L294.398612,10.7272727 Z" id="WhatTheHex" fill="#000000"></path>
                        <path d="M324.351798,21.1409574 C324.351798,21.1409574 324.351798,21.1409574 324.351798,21.1409574 C324.759502,19.8409036 325.340623,18.7929787 326.095179,17.9971513 C326.849735,17.2013239 327.768576,16.4692952 328.851729,15.8010432 C329.959223,15.1206412 330.887191,14.3217883 331.635662,13.4044605 C332.384133,12.4871328 332.758363,11.3906085 332.758363,10.1148546 C332.758363,9.15500177 332.533216,8.32273677 332.082917,7.61803467 C331.632617,6.91333256 331.027156,6.36658913 330.266515,5.97778797 C329.505873,5.58898681 328.657011,5.39458914 327.719901,5.39458914 C326.855812,5.39458914 326.037375,5.57987442 325.264563,5.95045052 C324.491752,6.32102663 323.852823,6.87991992 323.347757,7.62714715 C323.109448,7.97971662 322.898066,8.55595049 322.713609,9.35584877 C322.56444,10.0028068 321.988401,10.4611289 321.324468,10.4611289 L316,10.4611289 L316,10.4611289 C316.060851,8.15262205 316.623717,6.22079526 317.688615,4.66559061 C318.753513,3.11038596 320.165241,1.94399998 321.923844,1.16639765 C323.682446,0.388795329 325.626616,-4.97379915e-14 327.756411,-4.97379915e-14 C330.080931,-4.97379915e-14 332.128546,0.407020111 333.899319,1.22107254 C335.670091,2.03512497 337.051395,3.19239857 338.043271,4.69292805 C339.035147,6.19345754 339.531078,7.97037369 339.531078,10.0237298 C339.531078,12.1135361 339.041232,13.86919 338.061527,15.2907442 C337.081821,16.7122985 335.75224,17.9272839 334.072744,18.9357369 C333.086953,19.5432387 332.280686,20.1750311 331.653917,20.8311331 C331.027149,21.487235 330.564686,22.2557133 330.266515,23.1365909 C329.968343,24.0174686 329.813175,25.101843 329.801005,26.3897469 L329.801005,26.8635959 L328.554579,26.8635959 C326.121984,26.8635735 324.149976,24.8915659 324.149976,22.4589712 C324.149976,22.0119372 324.21803,21.5675081 324.351798,21.1409574 Z" id="Path" fill="#08152D"></path>
                        <path d="M326.898412,38.235973 C325.803089,38.235973 324.859908,37.8471777 324.068841,37.0695754 C323.277774,36.2919731 322.882247,35.3442845 322.882247,34.2264811 C322.882247,33.1329778 323.277774,32.1974391 324.068841,31.4198368 C324.859908,30.6422344 325.803089,30.2534391 326.898412,30.2534391 C327.981565,30.2534391 328.921704,30.6422344 329.718856,31.4198368 C330.516008,32.1974391 330.914578,33.1329778 330.914578,34.2264811 C330.914578,35.3442845 330.516008,36.2919731 329.718856,37.0695754 C328.921704,37.8471777 327.981565,38.235973 326.898412,38.235973 Z" id="Path" fill="#08152D"></path>
                        <path d="M353.298529,7.57325378 L352.857561,26.8635959 L352.857561,26.8635959 C349.590256,26.8635959 346.921494,24.2533366 346.849086,20.9868339 L346.395186,0.510298973 L346.395186,0.510298973 C350.208793,0.510298973 353.300333,3.60183877 353.300333,7.41544637 C353.300333,7.46805399 353.299732,7.52065989 353.298529,7.57325378 Z" id="Path" fill="#08152D"></path>
                        <path d="M349.918458,38.235973 C348.810964,38.235973 347.864741,37.8471777 347.079759,37.0695754 C346.294777,36.2919731 345.902293,35.3442845 345.902293,34.2264811 C345.902293,33.1329778 346.294777,32.1974391 347.079759,31.4198368 C347.864741,30.6422344 348.810964,30.2534391 349.918458,30.2534391 C351.001611,30.2534391 351.941749,30.6422344 352.738901,31.4198368 C353.536053,32.1974391 353.934623,33.1329778 353.934623,34.2264811 C353.934623,35.3442845 353.536053,36.2919731 352.738901,37.0695754 C351.941749,37.8471777 351.001611,38.235973 349.918458,38.235973 Z" id="Path" fill="#08152D"></path>
                    </g>
                </g>
            </g>
        </g>
    </g>
</svg>