<?xml version="1.0" encoding="UTF-8"?>
<svg width="295px" height="32px" viewBox="0 0 295 32" version="1.1" xmlns="http://www.w3.org/2000/svg" xmlns:xlink="http://www.w3.org/1999/xlink">
    <!-- Generator: Sketch 59.1 (86144) - https://sketch.com -->
    <title>Group 4</title>
    <desc>Created with Sketch.</desc>
    <g id="Welcome" stroke="none" stroke-width="1" fill="none" fill-rule="evenodd">
        <g id="Desktop-HD-Copy-7" transform="translate(-573.000000, -230.000000)">
            <g id="Group-6" transform="translate(455.000000, 130.000000)">
                <g id="Group-7" transform="translate(117.000000, 0.000000)">
                    <g id="Group-4" transform="translate(0.000000, 92.000000)">
                        <text id="WhatTheHex" font-family="Inter-Regular_Extra-Bold, Inter" font-size="39.8165503" font-weight="600" fill="#000000">
                            <tspan x="1.10342632" y="39">WhatTheHex</tspan>
                        </text>
                        <g id="Group-2" transform="translate(263.784646, 8.295115)" fill="#08152D" fill-rule="nonzero">
                            <path d="M6.92791254,17.5366666 C6.92791254,17.5366666 6.92791254,17.5366666 6.92791254,17.5366666 C7.26610742,16.458257 7.74815407,15.5889913 8.37406697,14.9288433 C8.99997986,14.2686954 9.76216881,13.6614692 10.6606567,13.1071465 C11.5793353,12.5427452 12.3490956,11.8800876 12.9699609,11.1191537 C13.5908261,10.3582198 13.901254,9.44864031 13.901254,8.3903879 C13.901254,7.59417894 13.7144925,6.90380558 13.3409638,6.3192471 C12.9674352,5.73468863 12.4651981,5.28115868 11.8342375,4.95864366 C11.2032769,4.63612864 10.4991355,4.47487355 9.72179203,4.47487355 C9.00502081,4.47487355 8.32611741,4.6285698 7.68506146,4.93596693 C7.04400551,5.24336406 6.51400657,5.70697245 6.09504874,6.32680601 C5.89736893,6.61926643 5.72202457,7.09725903 5.56901567,7.76078382 C5.44527825,8.29744295 4.96744697,8.6776264 4.4167075,8.6776264 L1.42108547e-13,8.6776264 L1.42108547e-13,8.6776264 C0.0504768465,6.76269346 0.517380673,5.16022099 1.40072549,3.8701609 C2.2840703,2.58010082 3.45511557,1.61257027 4.91389644,0.967540226 C6.3726773,0.322510184 7.98538836,-2.57571742e-14 9.75207799,-2.57571742e-14 C11.6802935,-2.57571742e-14 13.3788139,0.337627848 14.8476902,1.01289367 C16.3165664,1.6881595 17.4623736,2.64813122 18.2851462,3.89283763 C19.1079188,5.13754404 19.5192989,6.61151636 19.5192989,8.31479882 C19.5192989,10.0483171 19.1129664,11.5046521 18.3002892,12.6838477 C17.487612,13.8630432 16.3847094,14.8708875 14.9915485,15.7074109 C14.1738235,16.2113406 13.5050154,16.7354196 12.9851038,17.2796637 C12.4651923,17.8239078 12.081574,18.4613694 11.8342375,19.1920675 C11.5869009,19.9227655 11.4581869,20.8222666 11.4480915,21.8905976 L11.4480915,22.2836608 L10.4141669,22.2836608 C8.3963017,22.2836422 6.76049877,20.6478393 6.76049877,18.6299741 C6.76049877,18.2591543 6.81695004,17.8904952 6.92791254,17.5366666 Z" id="Path"></path>
                            <path d="M9.04035801,31.717178 C8.13177477,31.717178 7.34939539,31.3946679 6.69319638,30.7496378 C6.03699738,30.1046078 5.7089028,29.3184892 5.7089028,28.3912585 C5.7089028,27.484185 6.03699738,26.7081449 6.69319638,26.0631148 C7.34939539,25.4180848 8.13177477,25.0955746 9.04035801,25.0955746 C9.93884588,25.0955746 10.7187015,25.4180848 11.3799481,26.0631148 C12.0411948,26.7081449 12.3718132,27.484185 12.3718132,28.3912585 C12.3718132,29.3184892 12.0411948,30.1046078 11.3799481,30.7496378 C10.7187015,31.3946679 9.93884588,31.717178 9.04035801,31.717178 Z" id="Path"></path>
                            <path d="M30.9395578,6.28210084 L30.5737692,22.2836608 L30.5737692,22.2836608 C27.8635022,22.2836608 25.6497336,20.1184208 25.5896703,17.4088194 L25.2131549,0.423298849 L25.2131549,0.423298849 C28.3765861,0.423298849 30.9410538,2.98776655 30.9410538,6.15119778 C30.9410538,6.19483641 30.9405551,6.23847361 30.9395578,6.28210084 Z" id="Path"></path>
                            <path d="M28.1357497,31.717178 C27.2170711,31.717178 26.4321679,31.3946679 25.7810166,30.7496378 C25.1298653,30.1046078 24.8042945,29.3184892 24.8042945,28.3912585 C24.8042945,27.484185 25.1298653,26.7081449 25.7810166,26.0631148 C26.4321679,25.4180848 27.2170711,25.0955746 28.1357497,25.0955746 C29.0342376,25.0955746 29.8140931,25.4180848 30.4753398,26.0631148 C31.1365865,26.7081449 31.4672049,27.484185 31.4672049,28.3912585 C31.4672049,29.3184892 31.1365865,30.1046078 30.4753398,30.7496378 C29.8140931,31.3946679 29.0342376,31.717178 28.1357497,31.717178 Z" id="Path"></path>
                        </g>
                    </g>
                </g>
            </g>
        </g>
    </g>
</svg>